# xmcd
#
# Track frame offsets: 
#        150
#        15472
#        30682
#
# Disc length: 709 seconds
#
# Revision: 0
# Processed by: cddbd v1.5.2PL0 Copyright (c) Steve Scherf et al.
# Submitted via: ExactAudioCopyFreeDBPlugin 1.0
#
DISCID=1702c303
DTITLE=Mr.Lee featuring R. Kelly - Hey Love (Can I Have A Word)
DYEAR=1992
DGENRE=R&B
TTITLE0=Hey Love (Can I Have A Word)
TTITLE1=Hey Love (Can I Have A Word) (Funky Drummer Mix)
TTITLE2=Jazzy Lee
EXTD=
EXTT0=
EXTT1=
EXTT2=
PLAYORDER=
